<svg width="624" height="77" viewBox="0 0 624 77" fill="none" xmlns="http://www.w3.org/2000/svg">
<rect x="0.629883" y="0.409912" width="622.77" height="76" rx="36" fill="#D9DECA"/>
<path d="M38.4343 44.4099H34.395V31.9326H38.5622C39.7848 31.9326 40.8347 32.1824 41.712 32.682C42.5893 33.1775 43.2615 33.8903 43.7286 34.8204C44.1998 35.7465 44.4353 36.8573 44.4353 38.153C44.4353 39.4527 44.1977 40.5697 43.7225 41.5038C43.2514 42.438 42.569 43.1569 41.6755 43.6605C40.7819 44.1601 39.7015 44.4099 38.4343 44.4099ZM36.2776 42.765H38.3307C39.2811 42.765 40.0711 42.5862 40.7007 42.2288C41.3302 41.8673 41.8014 41.3454 42.1141 40.6631C42.4269 39.9767 42.5832 39.14 42.5832 38.153C42.5832 37.1741 42.4269 36.3436 42.1141 35.6612C41.8054 34.9788 41.3444 34.461 40.7311 34.1076C40.1178 33.7543 39.3563 33.5776 38.4465 33.5776H36.2776V42.765ZM46.6301 44.4099V35.052H48.4518V44.4099H46.6301ZM47.5501 33.6081C47.2333 33.6081 46.9611 33.5025 46.7337 33.2912C46.5103 33.076 46.3986 32.8201 46.3986 32.5236C46.3986 32.223 46.5103 31.9672 46.7337 31.756C46.9611 31.5407 47.2333 31.4331 47.5501 31.4331C47.8669 31.4331 48.137 31.5407 48.3604 31.756C48.5878 31.9672 48.7015 32.223 48.7015 32.5236C48.7015 32.8201 48.5878 33.076 48.3604 33.2912C48.137 33.5025 47.8669 33.6081 47.5501 33.6081ZM57.9148 37.3366L56.2638 37.6291C56.1947 37.4178 56.085 37.2168 55.9348 37.0259C55.7886 36.835 55.5895 36.6786 55.3377 36.5568C55.0859 36.4349 54.7711 36.374 54.3934 36.374C53.8776 36.374 53.447 36.4898 53.1018 36.7213C52.7566 36.9487 52.5839 37.2432 52.5839 37.6047C52.5839 37.9174 52.6997 38.1692 52.9312 38.3601C53.1627 38.551 53.5364 38.7074 54.0522 38.8293L55.5388 39.1704C56.3998 39.3695 57.0416 39.6761 57.464 40.0904C57.8864 40.5047 58.0976 41.0428 58.0976 41.7049C58.0976 42.2654 57.9351 42.765 57.6102 43.2036C57.2893 43.6382 56.8405 43.9794 56.2638 44.2271C55.6911 44.4749 55.027 44.5988 54.2715 44.5988C53.2236 44.5988 52.3687 44.3754 51.7066 43.9286C51.0446 43.4778 50.6384 42.8381 50.4881 42.0095L52.2489 41.7414C52.3585 42.2004 52.5839 42.5477 52.9251 42.7832C53.2663 43.0147 53.711 43.1305 54.2594 43.1305C54.8564 43.1305 55.3337 43.0066 55.6911 42.7589C56.0485 42.507 56.2272 42.2004 56.2272 41.8389C56.2272 41.5465 56.1175 41.3007 55.8982 41.1017C55.683 40.9027 55.3519 40.7524 54.9052 40.6509L53.3211 40.3036C52.4479 40.1046 51.8021 39.7878 51.3837 39.3532C50.9694 38.9186 50.7623 38.3683 50.7623 37.7022C50.7623 37.1498 50.9166 36.6664 51.2253 36.2522C51.534 35.8379 51.9605 35.515 52.5047 35.2835C53.049 35.0479 53.6725 34.9301 54.3751 34.9301C55.3865 34.9301 56.1825 35.1494 56.7633 35.5881C57.3441 36.0227 57.728 36.6055 57.9148 37.3366ZM64.0423 44.5988C63.1365 44.5988 62.3567 44.3937 61.7028 43.9834C61.0529 43.5692 60.5533 42.9985 60.204 42.2715C59.8547 41.5444 59.6801 40.7118 59.6801 39.7736C59.6801 38.8232 59.8588 37.9844 60.2162 37.2574C60.5736 36.5263 61.0773 35.9557 61.7271 35.5454C62.377 35.1352 63.1426 34.9301 64.024 34.9301C64.7348 34.9301 65.3684 35.0621 65.9248 35.3261C66.4813 35.5861 66.9301 35.9516 67.2712 36.4228C67.6165 36.8939 67.8216 37.4442 67.8866 38.0738H66.1137C66.0162 37.6351 65.7928 37.2574 65.4435 36.9406C65.0983 36.6238 64.6353 36.4654 64.0544 36.4654C63.5467 36.4654 63.102 36.5994 62.7202 36.8675C62.3425 37.1315 62.048 37.5092 61.8368 38.0007C61.6256 38.4881 61.52 39.0648 61.52 39.7309C61.52 40.4133 61.6236 41.0022 61.8307 41.4977C62.0379 41.9933 62.3303 42.3771 62.708 42.6492C63.0898 42.9213 63.5386 43.0574 64.0544 43.0574C64.3997 43.0574 64.7124 42.9944 64.9927 42.8685C65.277 42.7386 65.5146 42.5538 65.7055 42.3141C65.9004 42.0745 66.0365 41.7861 66.1137 41.449H67.8866C67.8216 42.0542 67.6246 42.5944 67.2956 43.0696C66.9666 43.5448 66.5259 43.9185 65.9736 44.1906C65.4252 44.4627 64.7815 44.5988 64.0423 44.5988ZM73.7764 44.5988C72.8991 44.5988 72.1335 44.3977 71.4796 43.9956C70.8257 43.5935 70.318 43.031 69.9565 42.308C69.595 41.5851 69.4142 40.7402 69.4142 39.7736C69.4142 38.8029 69.595 37.954 69.9565 37.227C70.318 36.4999 70.8257 35.9354 71.4796 35.5333C72.1335 35.1312 72.8991 34.9301 73.7764 34.9301C74.6537 34.9301 75.4193 35.1312 76.0733 35.5333C76.7272 35.9354 77.2349 36.4999 77.5964 37.227C77.9578 37.954 78.1386 38.8029 78.1386 39.7736C78.1386 40.7402 77.9578 41.5851 77.5964 42.308C77.2349 43.031 76.7272 43.5935 76.0733 43.9956C75.4193 44.3977 74.6537 44.5988 73.7764 44.5988ZM73.7825 43.0696C74.3511 43.0696 74.8223 42.9193 75.196 42.6187C75.5696 42.3182 75.8458 41.9181 76.0245 41.4185C76.2073 40.919 76.2987 40.3686 76.2987 39.7675C76.2987 39.1704 76.2073 38.6221 76.0245 38.1225C75.8458 37.6189 75.5696 37.2148 75.196 36.9101C74.8223 36.6055 74.3511 36.4532 73.7825 36.4532C73.2098 36.4532 72.7346 36.6055 72.3569 36.9101C71.9832 37.2148 71.705 37.6189 71.5222 38.1225C71.3435 38.6221 71.2542 39.1704 71.2542 39.7675C71.2542 40.3686 71.3435 40.919 71.5222 41.4185C71.705 41.9181 71.9832 42.3182 72.3569 42.6187C72.7346 42.9193 73.2098 43.0696 73.7825 43.0696ZM87.859 35.052L84.4656 44.4099H82.516L79.1164 35.052H81.0721L83.442 42.2532H83.5395L85.9034 35.052H87.859ZM93.2859 44.5988C92.3639 44.5988 91.5698 44.4018 90.9037 44.0078C90.2417 43.6098 89.7299 43.0513 89.3684 42.3324C89.011 41.6094 88.8323 40.7626 88.8323 39.7919C88.8323 38.8333 89.011 37.9885 89.3684 37.2574C89.7299 36.5263 90.2336 35.9557 90.8794 35.5454C91.5292 35.1352 92.2887 34.9301 93.1579 34.9301C93.6859 34.9301 94.1977 35.0174 94.6932 35.1921C95.1887 35.3667 95.6335 35.6409 96.0275 36.0146C96.4214 36.3882 96.7321 36.8736 96.9596 37.4706C97.187 38.0636 97.3008 38.7846 97.3008 39.6335V40.2793H89.8619V38.9146H95.5157C95.5157 38.4353 95.4182 38.0108 95.2233 37.6412C95.0283 37.2676 94.7541 36.9731 94.4008 36.7578C94.0515 36.5426 93.6413 36.4349 93.1701 36.4349C92.6583 36.4349 92.2116 36.5608 91.8298 36.8127C91.452 37.0604 91.1596 37.3854 90.9525 37.7875C90.7494 38.1855 90.6478 38.6181 90.6478 39.0851V40.1513C90.6478 40.7768 90.7575 41.3089 90.9768 41.7475C91.2002 42.1862 91.5109 42.5213 91.909 42.7528C92.307 42.9802 92.7721 43.0939 93.3041 43.0939C93.6494 43.0939 93.9642 43.0452 94.2485 42.9477C94.5328 42.8462 94.7785 42.6959 94.9856 42.4969C95.1928 42.2979 95.3512 42.0521 95.4609 41.7597L97.185 42.0704C97.0469 42.5781 96.7992 43.0229 96.4417 43.4047C96.0884 43.7824 95.6436 44.0769 95.1075 44.2881C94.5754 44.4952 93.9682 44.5988 93.2859 44.5988ZM99.3219 44.4099V35.052H101.083V36.5385H101.18C101.351 36.0349 101.651 35.6389 102.082 35.3505C102.516 35.058 103.008 34.9118 103.556 34.9118C103.67 34.9118 103.804 34.9159 103.958 34.924C104.117 34.9321 104.241 34.9423 104.33 34.9545V36.6969C104.257 36.6766 104.127 36.6543 103.94 36.6299C103.753 36.6015 103.566 36.5872 103.379 36.5872C102.949 36.5872 102.565 36.6786 102.228 36.8614C101.895 37.0401 101.631 37.2899 101.436 37.6108C101.241 37.9276 101.144 38.2891 101.144 38.6952V44.4099H99.3219ZM114.815 35.052V36.5141H109.703V35.052H114.815ZM111.074 32.8099H112.896V41.6622C112.896 42.0156 112.949 42.2816 113.054 42.4603C113.16 42.635 113.296 42.7548 113.462 42.8198C113.633 42.8807 113.818 42.9112 114.017 42.9112C114.163 42.9112 114.291 42.901 114.401 42.8807C114.51 42.8604 114.596 42.8442 114.657 42.832L114.986 44.3368C114.88 44.3774 114.73 44.418 114.535 44.4587C114.34 44.5033 114.096 44.5277 113.804 44.5318C113.324 44.5399 112.878 44.4546 112.463 44.2759C112.049 44.0972 111.714 43.821 111.458 43.4473C111.202 43.0736 111.074 42.6045 111.074 42.04V32.8099ZM118.853 38.8536V44.4099H117.031V31.9326H118.828V36.5751H118.944C119.163 36.0714 119.498 35.6714 119.949 35.3749C120.4 35.0784 120.989 34.9301 121.716 34.9301C122.358 34.9301 122.918 35.0621 123.398 35.3261C123.881 35.5901 124.255 35.9841 124.519 36.508C124.787 37.0279 124.921 37.6778 124.921 38.4576V44.4099H123.099V38.6769C123.099 37.9905 122.922 37.4585 122.569 37.0807C122.216 36.6989 121.724 36.508 121.095 36.508C120.664 36.508 120.278 36.5994 119.937 36.7822C119.6 36.965 119.334 37.233 119.139 37.5864C118.948 37.9357 118.853 38.3581 118.853 38.8536ZM131.385 44.5988C130.463 44.5988 129.669 44.4018 129.003 44.0078C128.341 43.6098 127.829 43.0513 127.467 42.3324C127.11 41.6094 126.931 40.7626 126.931 39.7919C126.931 38.8333 127.11 37.9885 127.467 37.2574C127.829 36.5263 128.333 35.9557 128.978 35.5454C129.628 35.1352 130.388 34.9301 131.257 34.9301C131.785 34.9301 132.297 35.0174 132.792 35.1921C133.288 35.3667 133.732 35.6409 134.126 36.0146C134.52 36.3882 134.831 36.8736 135.059 37.4706C135.286 38.0636 135.4 38.7846 135.4 39.6335V40.2793H127.961V38.9146H133.615C133.615 38.4353 133.517 38.0108 133.322 37.6412C133.127 37.2676 132.853 36.9731 132.5 36.7578C132.15 36.5426 131.74 36.4349 131.269 36.4349C130.757 36.4349 130.311 36.5608 129.929 36.8127C129.551 37.0604 129.259 37.3854 129.051 37.7875C128.848 38.1855 128.747 38.6181 128.747 39.0851V40.1513C128.747 40.7768 128.856 41.3089 129.076 41.7475C129.299 42.1862 129.61 42.5213 130.008 42.7528C130.406 42.9802 130.871 43.0939 131.403 43.0939C131.748 43.0939 132.063 43.0452 132.347 42.9477C132.632 42.8462 132.877 42.6959 133.085 42.4969C133.292 42.2979 133.45 42.0521 133.56 41.7597L135.284 42.0704C135.146 42.5781 134.898 43.0229 134.541 43.4047C134.187 43.7824 133.743 44.0769 133.206 44.2881C132.674 44.4952 132.067 44.5988 131.385 44.5988ZM142.107 44.4099V31.9326H143.929V36.569H144.039C144.144 36.374 144.297 36.1486 144.496 35.8927C144.695 35.6368 144.971 35.4134 145.324 35.2225C145.678 35.0276 146.145 34.9301 146.726 34.9301C147.481 34.9301 148.155 35.121 148.748 35.5028C149.341 35.8846 149.806 36.4349 150.143 37.1538C150.485 37.8727 150.655 38.7379 150.655 39.7492C150.655 40.7606 150.487 41.6277 150.149 42.3507C149.812 43.0696 149.349 43.624 148.76 44.0139C148.171 44.3998 147.499 44.5927 146.744 44.5927C146.175 44.5927 145.71 44.4972 145.349 44.3063C144.991 44.1154 144.711 43.8921 144.508 43.6362C144.305 43.3803 144.148 43.1528 144.039 42.9538H143.886V44.4099H142.107ZM143.893 39.7309C143.893 40.3889 143.988 40.9657 144.179 41.4612C144.37 41.9567 144.646 42.3446 145.007 42.6248C145.369 42.901 145.812 43.0391 146.336 43.0391C146.88 43.0391 147.335 42.8949 147.7 42.6066C148.066 42.3141 148.342 41.9181 148.529 41.4185C148.72 40.919 148.815 40.3564 148.815 39.7309C148.815 39.1136 148.722 38.5592 148.535 38.0677C148.352 37.5762 148.076 37.1884 147.706 36.9041C147.341 36.6197 146.884 36.4776 146.336 36.4776C145.808 36.4776 145.361 36.6136 144.995 36.8858C144.634 37.1579 144.36 37.5377 144.173 38.0251C143.986 38.5125 143.893 39.0811 143.893 39.7309ZM156.734 44.5988C155.812 44.5988 155.018 44.4018 154.352 44.0078C153.69 43.6098 153.178 43.0513 152.816 42.3324C152.459 41.6094 152.28 40.7626 152.28 39.7919C152.28 38.8333 152.459 37.9885 152.816 37.2574C153.178 36.5263 153.682 35.9557 154.327 35.5454C154.977 35.1352 155.737 34.9301 156.606 34.9301C157.134 34.9301 157.646 35.0174 158.141 35.1921C158.637 35.3667 159.081 35.6409 159.475 36.0146C159.869 36.3882 160.18 36.8736 160.408 37.4706C160.635 38.0636 160.749 38.7846 160.749 39.6335V40.2793H153.31V38.9146H158.964C158.964 38.4353 158.866 38.0108 158.671 37.6412C158.476 37.2676 158.202 36.9731 157.849 36.7578C157.499 36.5426 157.089 36.4349 156.618 36.4349C156.106 36.4349 155.66 36.5608 155.278 36.8127C154.9 37.0604 154.608 37.3854 154.4 37.7875C154.197 38.1855 154.096 38.6181 154.096 39.0851V40.1513C154.096 40.7768 154.205 41.3089 154.425 41.7475C154.648 42.1862 154.959 42.5213 155.357 42.7528C155.755 42.9802 156.22 43.0939 156.752 43.0939C157.097 43.0939 157.412 43.0452 157.696 42.9477C157.981 42.8462 158.226 42.6959 158.434 42.4969C158.641 42.2979 158.799 42.0521 158.909 41.7597L160.633 42.0704C160.495 42.5781 160.247 43.0229 159.89 43.4047C159.536 43.7824 159.092 44.0769 158.555 44.2881C158.023 44.4952 157.416 44.5988 156.734 44.5988ZM169.782 37.3366L168.131 37.6291C168.062 37.4178 167.953 37.2168 167.802 37.0259C167.656 36.835 167.457 36.6786 167.205 36.5568C166.953 36.4349 166.639 36.374 166.261 36.374C165.745 36.374 165.314 36.4898 164.969 36.7213C164.624 36.9487 164.451 37.2432 164.451 37.6047C164.451 37.9174 164.567 38.1692 164.799 38.3601C165.03 38.551 165.404 38.7074 165.92 38.8293L167.406 39.1704C168.267 39.3695 168.909 39.6761 169.331 40.0904C169.754 40.5047 169.965 41.0428 169.965 41.7049C169.965 42.2654 169.803 42.765 169.478 43.2036C169.157 43.6382 168.708 43.9794 168.131 44.2271C167.559 44.4749 166.894 44.5988 166.139 44.5988C165.091 44.5988 164.236 44.3754 163.574 43.9286C162.912 43.4778 162.506 42.8381 162.356 42.0095L164.116 41.7414C164.226 42.2004 164.451 42.5477 164.793 42.7832C165.134 43.0147 165.578 43.1305 166.127 43.1305C166.724 43.1305 167.201 43.0066 167.559 42.7589C167.916 42.507 168.095 42.2004 168.095 41.8389C168.095 41.5465 167.985 41.3007 167.766 41.1017C167.55 40.9027 167.219 40.7524 166.773 40.6509L165.189 40.3036C164.315 40.1046 163.67 39.7878 163.251 39.3532C162.837 38.9186 162.63 38.3683 162.63 37.7022C162.63 37.1498 162.784 36.6664 163.093 36.2522C163.401 35.8379 163.828 35.515 164.372 35.2835C164.916 35.0479 165.54 34.9301 166.243 34.9301C167.254 34.9301 168.05 35.1494 168.631 35.5881C169.212 36.0227 169.595 36.6055 169.782 37.3366ZM176.336 35.052V36.5141H171.225V35.052H176.336ZM172.595 32.8099H174.417V41.6622C174.417 42.0156 174.47 42.2816 174.575 42.4603C174.681 42.635 174.817 42.7548 174.984 42.8198C175.154 42.8807 175.339 42.9112 175.538 42.9112C175.684 42.9112 175.812 42.901 175.922 42.8807C176.032 42.8604 176.117 42.8442 176.178 42.832L176.507 44.3368C176.401 44.3774 176.251 44.418 176.056 44.4587C175.861 44.5033 175.617 44.5277 175.325 44.5318C174.846 44.5399 174.399 44.4546 173.985 44.2759C173.57 44.0972 173.235 43.821 172.979 43.4473C172.723 43.0736 172.595 42.6045 172.595 42.04V32.8099ZM189.904 37.3366L188.253 37.6291C188.184 37.4178 188.074 37.2168 187.924 37.0259C187.778 36.835 187.579 36.6786 187.327 36.5568C187.075 36.4349 186.76 36.374 186.383 36.374C185.867 36.374 185.436 36.4898 185.091 36.7213C184.746 36.9487 184.573 37.2432 184.573 37.6047C184.573 37.9174 184.689 38.1692 184.92 38.3601C185.152 38.551 185.526 38.7074 186.041 38.8293L187.528 39.1704C188.389 39.3695 189.031 39.6761 189.453 40.0904C189.876 40.5047 190.087 41.0428 190.087 41.7049C190.087 42.2654 189.924 42.765 189.599 43.2036C189.279 43.6382 188.83 43.9794 188.253 44.2271C187.68 44.4749 187.016 44.5988 186.261 44.5988C185.213 44.5988 184.358 44.3754 183.696 43.9286C183.034 43.4778 182.628 42.8381 182.477 42.0095L184.238 41.7414C184.348 42.2004 184.573 42.5477 184.914 42.7832C185.255 43.0147 185.7 43.1305 186.249 43.1305C186.846 43.1305 187.323 43.0066 187.68 42.7589C188.038 42.507 188.216 42.2004 188.216 41.8389C188.216 41.5465 188.107 41.3007 187.887 41.1017C187.672 40.9027 187.341 40.7524 186.894 40.6509L185.31 40.3036C184.437 40.1046 183.791 39.7878 183.373 39.3532C182.959 38.9186 182.752 38.3683 182.752 37.7022C182.752 37.1498 182.906 36.6664 183.215 36.2522C183.523 35.8379 183.95 35.515 184.494 35.2835C185.038 35.0479 185.662 34.9301 186.364 34.9301C187.376 34.9301 188.172 35.1494 188.753 35.5881C189.333 36.0227 189.717 36.6055 189.904 37.3366ZM196.031 44.5988C195.154 44.5988 194.389 44.3977 193.735 43.9956C193.081 43.5935 192.573 43.031 192.212 42.308C191.85 41.5851 191.669 40.7402 191.669 39.7736C191.669 38.8029 191.85 37.954 192.212 37.227C192.573 36.4999 193.081 35.9354 193.735 35.5333C194.389 35.1312 195.154 34.9301 196.031 34.9301C196.909 34.9301 197.674 35.1312 198.328 35.5333C198.982 35.9354 199.49 36.4999 199.851 37.227C200.213 37.954 200.394 38.8029 200.394 39.7736C200.394 40.7402 200.213 41.5851 199.851 42.308C199.49 43.031 198.982 43.5935 198.328 43.9956C197.674 44.3977 196.909 44.5988 196.031 44.5988ZM196.038 43.0696C196.606 43.0696 197.077 42.9193 197.451 42.6187C197.825 42.3182 198.101 41.9181 198.28 41.4185C198.462 40.919 198.554 40.3686 198.554 39.7675C198.554 39.1704 198.462 38.6221 198.28 38.1225C198.101 37.6189 197.825 37.2148 197.451 36.9101C197.077 36.6055 196.606 36.4532 196.038 36.4532C195.465 36.4532 194.99 36.6055 194.612 36.9101C194.238 37.2148 193.96 37.6189 193.777 38.1225C193.599 38.6221 193.509 39.1704 193.509 39.7675C193.509 40.3686 193.599 40.919 193.777 41.4185C193.96 41.9181 194.238 42.3182 194.612 42.6187C194.99 42.9193 195.465 43.0696 196.038 43.0696ZM204.249 31.9326V44.4099H202.427V31.9326H204.249ZM212.627 40.529V35.052H214.455V44.4099H212.664V42.7893H212.566C212.351 43.2889 212.006 43.7052 211.531 44.0383C211.059 44.3673 210.473 44.5318 209.77 44.5318C209.169 44.5318 208.637 44.3998 208.174 44.1358C207.715 43.8677 207.353 43.4717 207.089 42.9477C206.829 42.4238 206.699 41.776 206.699 41.0043V35.052H208.521V40.7849C208.521 41.4226 208.698 41.9303 209.051 42.308C209.404 42.6858 209.863 42.8746 210.428 42.8746C210.769 42.8746 211.108 42.7893 211.445 42.6187C211.786 42.4482 212.069 42.1902 212.292 41.845C212.52 41.4998 212.631 41.0611 212.627 40.529ZM221.271 35.052V36.5141H216.159V35.052H221.271ZM217.53 32.8099H219.352V41.6622C219.352 42.0156 219.405 42.2816 219.51 42.4603C219.616 42.635 219.752 42.7548 219.918 42.8198C220.089 42.8807 220.274 42.9112 220.473 42.9112C220.619 42.9112 220.747 42.901 220.857 42.8807C220.966 42.8604 221.051 42.8442 221.112 42.832L221.441 44.3368C221.336 44.3774 221.186 44.418 220.991 44.4587C220.796 44.5033 220.552 44.5277 220.259 44.5318C219.78 44.5399 219.333 44.4546 218.919 44.2759C218.505 44.0972 218.17 43.821 217.914 43.4473C217.658 43.0736 217.53 42.6045 217.53 42.04V32.8099ZM223.286 44.4099V35.052H225.108V44.4099H223.286ZM224.206 33.6081C223.889 33.6081 223.617 33.5025 223.389 33.2912C223.166 33.076 223.054 32.8201 223.054 32.5236C223.054 32.223 223.166 31.9672 223.389 31.756C223.617 31.5407 223.889 31.4331 224.206 31.4331C224.523 31.4331 224.793 31.5407 225.016 31.756C225.244 31.9672 225.357 32.223 225.357 32.5236C225.357 32.8201 225.244 33.076 225.016 33.2912C224.793 33.5025 224.523 33.6081 224.206 33.6081ZM231.5 44.5988C230.623 44.5988 229.857 44.3977 229.203 43.9956C228.549 43.5935 228.042 43.031 227.68 42.308C227.319 41.5851 227.138 40.7402 227.138 39.7736C227.138 38.8029 227.319 37.954 227.68 37.227C228.042 36.4999 228.549 35.9354 229.203 35.5333C229.857 35.1312 230.623 34.9301 231.5 34.9301C232.377 34.9301 233.143 35.1312 233.797 35.5333C234.451 35.9354 234.958 36.4999 235.32 37.227C235.681 37.954 235.862 38.8029 235.862 39.7736C235.862 40.7402 235.681 41.5851 235.32 42.308C234.958 43.031 234.451 43.5935 233.797 43.9956C233.143 44.3977 232.377 44.5988 231.5 44.5988ZM231.506 43.0696C232.075 43.0696 232.546 42.9193 232.92 42.6187C233.293 42.3182 233.569 41.9181 233.748 41.4185C233.931 40.919 234.022 40.3686 234.022 39.7675C234.022 39.1704 233.931 38.6221 233.748 38.1225C233.569 37.6189 233.293 37.2148 232.92 36.9101C232.546 36.6055 232.075 36.4532 231.506 36.4532C230.933 36.4532 230.458 36.6055 230.08 36.9101C229.707 37.2148 229.429 37.6189 229.246 38.1225C229.067 38.6221 228.978 39.1704 228.978 39.7675C228.978 40.3686 229.067 40.919 229.246 41.4185C229.429 41.9181 229.707 42.3182 230.08 42.6187C230.458 42.9193 230.933 43.0696 231.506 43.0696ZM239.717 38.8536V44.4099H237.896V35.052H239.644V36.5751H239.76C239.975 36.0795 240.312 35.6815 240.771 35.3809C241.234 35.0804 241.817 34.9301 242.52 34.9301C243.157 34.9301 243.716 35.0641 244.195 35.3322C244.674 35.5962 245.046 35.9902 245.31 36.5141C245.574 37.0381 245.706 37.6859 245.706 38.4576V44.4099H243.884V38.6769C243.884 37.9987 243.708 37.4686 243.354 37.0868C243.001 36.701 242.516 36.508 241.898 36.508C241.476 36.508 241.1 36.5994 240.771 36.7822C240.446 36.965 240.188 37.233 239.997 37.5864C239.811 37.9357 239.717 38.3581 239.717 38.8536ZM257.143 35.052V36.5141H251.855V35.052H257.143ZM253.305 44.4099V33.9675C253.305 33.3826 253.433 32.8973 253.689 32.5114C253.944 32.1215 254.284 31.8311 254.706 31.6402C255.128 31.4452 255.587 31.3478 256.083 31.3478C256.448 31.3478 256.761 31.3782 257.021 31.4392C257.281 31.496 257.474 31.5488 257.6 31.5976L257.173 33.0719C257.088 33.0476 256.978 33.0191 256.844 32.9866C256.71 32.9501 256.548 32.9318 256.357 32.9318C255.914 32.9318 255.598 33.0415 255.407 33.2608C255.22 33.4801 255.126 33.7969 255.126 34.2112V44.4099H253.305ZM262.596 44.5988C261.718 44.5988 260.953 44.3977 260.299 43.9956C259.645 43.5935 259.137 43.031 258.776 42.308C258.414 41.5851 258.234 40.7402 258.234 39.7736C258.234 38.8029 258.414 37.954 258.776 37.227C259.137 36.4999 259.645 35.9354 260.299 35.5333C260.953 35.1312 261.718 34.9301 262.596 34.9301C263.473 34.9301 264.239 35.1312 264.893 35.5333C265.546 35.9354 266.054 36.4999 266.416 37.227C266.777 37.954 266.958 38.8029 266.958 39.7736C266.958 40.7402 266.777 41.5851 266.416 42.308C266.054 43.031 265.546 43.5935 264.893 43.9956C264.239 44.3977 263.473 44.5988 262.596 44.5988ZM262.602 43.0696C263.17 43.0696 263.642 42.9193 264.015 42.6187C264.389 42.3182 264.665 41.9181 264.844 41.4185C265.027 40.919 265.118 40.3686 265.118 39.7675C265.118 39.1704 265.027 38.6221 264.844 38.1225C264.665 37.6189 264.389 37.2148 264.015 36.9101C263.642 36.6055 263.17 36.4532 262.602 36.4532C262.029 36.4532 261.554 36.6055 261.176 36.9101C260.802 37.2148 260.524 37.6189 260.341 38.1225C260.163 38.6221 260.073 39.1704 260.073 39.7675C260.073 40.3686 260.163 40.919 260.341 41.4185C260.524 41.9181 260.802 42.3182 261.176 42.6187C261.554 42.9193 262.029 43.0696 262.602 43.0696ZM268.991 44.4099V35.052H270.752V36.5385H270.849C271.02 36.0349 271.321 35.6389 271.751 35.3505C272.186 35.058 272.677 34.9118 273.225 34.9118C273.339 34.9118 273.473 34.9159 273.628 34.924C273.786 34.9321 273.91 34.9423 273.999 34.9545V36.6969C273.926 36.6766 273.796 36.6543 273.609 36.6299C273.422 36.6015 273.236 36.5872 273.049 36.5872C272.618 36.5872 272.234 36.6786 271.897 36.8614C271.564 37.0401 271.3 37.2899 271.105 37.6108C270.91 37.9276 270.813 38.2891 270.813 38.6952V44.4099H268.991ZM284.058 44.5988C283.18 44.5988 282.415 44.3977 281.761 43.9956C281.107 43.5935 280.599 43.031 280.238 42.308C279.876 41.5851 279.696 40.7402 279.696 39.7736C279.696 38.8029 279.876 37.954 280.238 37.227C280.599 36.4999 281.107 35.9354 281.761 35.5333C282.415 35.1312 283.18 34.9301 284.058 34.9301C284.935 34.9301 285.701 35.1312 286.355 35.5333C287.009 35.9354 287.516 36.4999 287.878 37.227C288.239 37.954 288.42 38.8029 288.42 39.7736C288.42 40.7402 288.239 41.5851 287.878 42.308C287.516 43.031 287.009 43.5935 286.355 43.9956C285.701 44.3977 284.935 44.5988 284.058 44.5988ZM284.064 43.0696C284.632 43.0696 285.104 42.9193 285.477 42.6187C285.851 42.3182 286.127 41.9181 286.306 41.4185C286.489 40.919 286.58 40.3686 286.58 39.7675C286.58 39.1704 286.489 38.6221 286.306 38.1225C286.127 37.6189 285.851 37.2148 285.477 36.9101C285.104 36.6055 284.632 36.4532 284.064 36.4532C283.491 36.4532 283.016 36.6055 282.638 36.9101C282.265 37.2148 281.986 37.6189 281.804 38.1225C281.625 38.6221 281.535 39.1704 281.535 39.7675C281.535 40.3686 281.625 40.919 281.804 41.4185C281.986 41.9181 282.265 42.3182 282.638 42.6187C283.016 42.9193 283.491 43.0696 284.064 43.0696ZM290.453 47.9191V35.052H292.232V36.569H292.385C292.49 36.374 292.642 36.1486 292.842 35.8927C293.041 35.6368 293.317 35.4134 293.67 35.2225C294.023 35.0276 294.491 34.9301 295.071 34.9301C295.827 34.9301 296.501 35.121 297.094 35.5028C297.687 35.8846 298.152 36.4349 298.489 37.1538C298.83 37.8727 299.001 38.7379 299.001 39.7492C299.001 40.7606 298.832 41.6277 298.495 42.3507C298.158 43.0696 297.695 43.624 297.106 44.0139C296.517 44.3998 295.845 44.5927 295.09 44.5927C294.521 44.5927 294.056 44.4972 293.694 44.3063C293.337 44.1154 293.057 43.8921 292.854 43.6362C292.651 43.3803 292.494 43.1528 292.385 42.9538H292.275V47.9191H290.453ZM292.238 39.7309C292.238 40.3889 292.334 40.9657 292.525 41.4612C292.716 41.9567 292.992 42.3446 293.353 42.6248C293.715 42.901 294.157 43.0391 294.681 43.0391C295.226 43.0391 295.681 42.8949 296.046 42.6066C296.412 42.3141 296.688 41.9181 296.875 41.4185C297.066 40.919 297.161 40.3564 297.161 39.7309C297.161 39.1136 297.068 38.5592 296.881 38.0677C296.698 37.5762 296.422 37.1884 296.052 36.9041C295.687 36.6197 295.23 36.4776 294.681 36.4776C294.153 36.4776 293.707 36.6136 293.341 36.8858C292.98 37.1579 292.705 37.5377 292.519 38.0251C292.332 38.5125 292.238 39.0811 292.238 39.7309ZM305.41 35.052V36.5141H300.299V35.052H305.41ZM301.669 32.8099H303.491V41.6622C303.491 42.0156 303.544 42.2816 303.649 42.4603C303.755 42.635 303.891 42.7548 304.058 42.8198C304.228 42.8807 304.413 42.9112 304.612 42.9112C304.758 42.9112 304.886 42.901 304.996 42.8807C305.106 42.8604 305.191 42.8442 305.252 42.832L305.581 44.3368C305.475 44.3774 305.325 44.418 305.13 44.4587C304.935 44.5033 304.691 44.5277 304.399 44.5318C303.92 44.5399 303.473 44.4546 303.058 44.2759C302.644 44.0972 302.309 43.821 302.053 43.4473C301.797 43.0736 301.669 42.6045 301.669 42.04V32.8099ZM307.425 44.4099V35.052H309.247V44.4099H307.425ZM308.345 33.6081C308.028 33.6081 307.756 33.5025 307.529 33.2912C307.305 33.076 307.194 32.8201 307.194 32.5236C307.194 32.223 307.305 31.9672 307.529 31.756C307.756 31.5407 308.028 31.4331 308.345 31.4331C308.662 31.4331 308.932 31.5407 309.155 31.756C309.383 31.9672 309.497 32.223 309.497 32.5236C309.497 32.8201 309.383 33.076 309.155 33.2912C308.932 33.5025 308.662 33.6081 308.345 33.6081ZM311.698 44.4099V35.052H313.446V36.5751H313.562C313.757 36.0592 314.076 35.6571 314.518 35.3688C314.961 35.0763 315.491 34.9301 316.108 34.9301C316.734 34.9301 317.258 35.0763 317.68 35.3688C318.107 35.6612 318.422 36.0633 318.625 36.5751H318.722C318.945 36.0755 319.301 35.6774 319.788 35.3809C320.276 35.0804 320.856 34.9301 321.531 34.9301C322.38 34.9301 323.072 35.1961 323.608 35.7282C324.148 36.2603 324.419 37.0625 324.419 38.1347V44.4099H322.597V38.3053C322.597 37.6717 322.424 37.2127 322.079 36.9284C321.734 36.6441 321.322 36.502 320.842 36.502C320.249 36.502 319.788 36.6847 319.459 37.0503C319.13 37.4118 318.966 37.8768 318.966 38.4454V44.4099H317.15V38.1896C317.15 37.6819 316.992 37.2737 316.675 36.965C316.358 36.6563 315.946 36.502 315.438 36.502C315.093 36.502 314.774 36.5933 314.482 36.7761C314.193 36.9548 313.96 37.2046 313.781 37.5255C313.606 37.8463 313.519 38.218 313.519 38.6404V44.4099H311.698ZM326.86 44.4099V35.052H328.682V44.4099H326.86ZM327.78 33.6081C327.463 33.6081 327.191 33.5025 326.964 33.2912C326.74 33.076 326.629 32.8201 326.629 32.5236C326.629 32.223 326.74 31.9672 326.964 31.756C327.191 31.5407 327.463 31.4331 327.78 31.4331C328.097 31.4331 328.367 31.5407 328.59 31.756C328.818 31.9672 328.931 32.223 328.931 32.5236C328.931 32.8201 328.818 33.076 328.59 33.2912C328.367 33.5025 328.097 33.6081 327.78 33.6081ZM330.937 44.4099V43.161L336.006 36.7213V36.636H331.102V35.052H338.279V36.3801L333.405 42.7406V42.8259H338.449V44.4099H330.937ZM340.598 44.4099V35.052H342.42V44.4099H340.598ZM341.518 33.6081C341.202 33.6081 340.929 33.5025 340.702 33.2912C340.479 33.076 340.367 32.8201 340.367 32.5236C340.367 32.223 340.479 31.9672 340.702 31.756C340.929 31.5407 341.202 31.4331 341.518 31.4331C341.835 31.4331 342.105 31.5407 342.329 31.756C342.556 31.9672 342.67 32.223 342.67 32.5236C342.67 32.8201 342.556 33.076 342.329 33.2912C342.105 33.5025 341.835 33.6081 341.518 33.6081ZM346.692 38.8536V44.4099H344.871V35.052H346.619V36.5751H346.735C346.95 36.0795 347.287 35.6815 347.746 35.3809C348.209 35.0804 348.792 34.9301 349.495 34.9301C350.133 34.9301 350.691 35.0641 351.17 35.3322C351.65 35.5962 352.021 35.9902 352.285 36.5141C352.549 37.0381 352.681 37.6859 352.681 38.4576V44.4099H350.86V38.6769C350.86 37.9987 350.683 37.4686 350.33 37.0868C349.976 36.701 349.491 36.508 348.873 36.508C348.451 36.508 348.075 36.5994 347.746 36.7822C347.421 36.965 347.164 37.233 346.973 37.5864C346.786 37.9357 346.692 38.3581 346.692 38.8536ZM359.048 48.1141C358.305 48.1141 357.665 48.0166 357.129 47.8217C356.597 47.6267 356.162 47.3688 355.825 47.0479C355.488 46.7271 355.236 46.3757 355.069 45.9939L356.635 45.3481C356.745 45.5269 356.891 45.7157 357.074 45.9147C357.261 46.1178 357.513 46.2904 357.829 46.4326C358.15 46.5748 358.562 46.6458 359.066 46.6458C359.757 46.6458 360.327 46.4773 360.778 46.1402C361.229 45.8071 361.454 45.275 361.454 44.5439V42.704H361.339C361.229 42.9031 361.07 43.1244 360.863 43.3681C360.66 43.6118 360.38 43.823 360.023 44.0017C359.665 44.1804 359.2 44.2698 358.627 44.2698C357.888 44.2698 357.222 44.0972 356.629 43.7519C356.04 43.4026 355.573 42.8888 355.228 42.2105C354.887 41.5282 354.716 40.6895 354.716 39.6944C354.716 38.6993 354.885 37.8463 355.222 37.1356C355.563 36.4248 356.03 35.8805 356.623 35.5028C357.216 35.121 357.888 34.9301 358.64 34.9301C359.22 34.9301 359.69 35.0276 360.047 35.2225C360.404 35.4134 360.683 35.6368 360.882 35.8927C361.085 36.1486 361.241 36.374 361.351 36.569H361.485V35.052H363.27V44.6171C363.27 45.4213 363.083 46.0813 362.709 46.5971C362.336 47.1129 361.83 47.4947 361.192 47.7425C360.559 47.9902 359.844 48.1141 359.048 48.1141ZM359.03 42.7589C359.553 42.7589 359.996 42.637 360.358 42.3933C360.723 42.1456 360.999 41.7922 361.186 41.3332C361.377 40.8702 361.473 40.3158 361.473 39.67C361.473 39.0405 361.379 38.4861 361.192 38.0068C361.006 37.5275 360.731 37.1538 360.37 36.8858C360.008 36.6136 359.562 36.4776 359.03 36.4776C358.481 36.4776 358.024 36.6197 357.659 36.9041C357.293 37.1843 357.017 37.5661 356.83 38.0494C356.647 38.5328 356.556 39.073 356.556 39.67C356.556 40.2833 356.649 40.8215 356.836 41.2845C357.023 41.7475 357.299 42.109 357.665 42.369C358.034 42.6289 358.489 42.7589 359.03 42.7589ZM371.405 47.9191C371.133 47.9191 370.885 47.8968 370.661 47.8521C370.438 47.8115 370.272 47.7668 370.162 47.7181L370.601 46.2255C370.934 46.3148 371.23 46.3534 371.49 46.3412C371.75 46.329 371.979 46.2315 372.178 46.0488C372.382 45.866 372.56 45.5675 372.715 45.1532L372.94 44.5318L369.516 35.052H371.466L373.836 42.3141H373.933L376.303 35.052H378.259L374.402 45.6589C374.224 46.1463 373.996 46.5585 373.72 46.8956C373.444 47.2368 373.115 47.4927 372.733 47.6633C372.351 47.8339 371.908 47.9191 371.405 47.9191ZM383.594 44.5988C382.717 44.5988 381.951 44.3977 381.297 43.9956C380.643 43.5935 380.136 43.031 379.774 42.308C379.413 41.5851 379.232 40.7402 379.232 39.7736C379.232 38.8029 379.413 37.954 379.774 37.227C380.136 36.4999 380.643 35.9354 381.297 35.5333C381.951 35.1312 382.717 34.9301 383.594 34.9301C384.471 34.9301 385.237 35.1312 385.891 35.5333C386.545 35.9354 387.053 36.4999 387.414 37.227C387.776 37.954 387.956 38.8029 387.956 39.7736C387.956 40.7402 387.776 41.5851 387.414 42.308C387.053 43.031 386.545 43.5935 385.891 43.9956C385.237 44.3977 384.471 44.5988 383.594 44.5988ZM383.6 43.0696C384.169 43.0696 384.64 42.9193 385.014 42.6187C385.387 42.3182 385.664 41.9181 385.842 41.4185C386.025 40.919 386.116 40.3686 386.116 39.7675C386.116 39.1704 386.025 38.6221 385.842 38.1225C385.664 37.6189 385.387 37.2148 385.014 36.9101C384.64 36.6055 384.169 36.4532 383.6 36.4532C383.028 36.4532 382.552 36.6055 382.175 36.9101C381.801 37.2148 381.523 37.6189 381.34 38.1225C381.161 38.6221 381.072 39.1704 381.072 39.7675C381.072 40.3686 381.161 40.919 381.34 41.4185C381.523 41.9181 381.801 42.3182 382.175 42.6187C382.552 42.9193 383.028 43.0696 383.6 43.0696ZM395.918 40.529V35.052H397.745V44.4099H395.954V42.7893H395.857C395.641 43.2889 395.296 43.7052 394.821 44.0383C394.35 44.3673 393.763 44.5318 393.06 44.5318C392.459 44.5318 391.927 44.3998 391.464 44.1358C391.005 43.8677 390.644 43.4717 390.38 42.9477C390.12 42.4238 389.99 41.776 389.99 41.0043V35.052H391.811V40.7849C391.811 41.4226 391.988 41.9303 392.341 42.308C392.695 42.6858 393.154 42.8746 393.718 42.8746C394.059 42.8746 394.399 42.7893 394.736 42.6187C395.077 42.4482 395.359 42.1902 395.583 41.845C395.81 41.4998 395.922 41.0611 395.918 40.529ZM400.193 44.4099V35.052H401.954V36.5385H402.051C402.222 36.0349 402.522 35.6389 402.953 35.3505C403.387 35.058 403.879 34.9118 404.427 34.9118C404.541 34.9118 404.675 34.9159 404.829 34.924C404.988 34.9321 405.112 34.9423 405.201 34.9545V36.6969C405.128 36.6766 404.998 36.6543 404.811 36.6299C404.624 36.6015 404.437 36.5872 404.251 36.5872C403.82 36.5872 403.436 36.6786 403.099 36.8614C402.766 37.0401 402.502 37.2899 402.307 37.6108C402.112 37.9276 402.015 38.2891 402.015 38.6952V44.4099H400.193ZM415.26 44.5988C414.354 44.5988 413.574 44.3937 412.92 43.9834C412.27 43.5692 411.771 42.9985 411.421 42.2715C411.072 41.5444 410.897 40.7118 410.897 39.7736C410.897 38.8232 411.076 37.9844 411.433 37.2574C411.791 36.5263 412.295 35.9557 412.944 35.5454C413.594 35.1352 414.36 34.9301 415.241 34.9301C415.952 34.9301 416.586 35.0621 417.142 35.3261C417.699 35.5861 418.147 35.9516 418.488 36.4228C418.834 36.8939 419.039 37.4442 419.104 38.0738H417.331C417.233 37.6351 417.01 37.2574 416.661 36.9406C416.316 36.6238 415.853 36.4654 415.272 36.4654C414.764 36.4654 414.319 36.5994 413.937 36.8675C413.56 37.1315 413.265 37.5092 413.054 38.0007C412.843 38.4881 412.737 39.0648 412.737 39.7309C412.737 40.4133 412.841 41.0022 413.048 41.4977C413.255 41.9933 413.548 42.3771 413.925 42.6492C414.307 42.9213 414.756 43.0574 415.272 43.0574C415.617 43.0574 415.93 42.9944 416.21 42.8685C416.494 42.7386 416.732 42.5538 416.923 42.3141C417.118 42.0745 417.254 41.7861 417.331 41.449H419.104C419.039 42.0542 418.842 42.5944 418.513 43.0696C418.184 43.5448 417.743 43.9185 417.191 44.1906C416.642 44.4627 415.999 44.5988 415.26 44.5988ZM424.994 44.5988C424.116 44.5988 423.351 44.3977 422.697 43.9956C422.043 43.5935 421.535 43.031 421.174 42.308C420.812 41.5851 420.632 40.7402 420.632 39.7736C420.632 38.8029 420.812 37.954 421.174 37.227C421.535 36.4999 422.043 35.9354 422.697 35.5333C423.351 35.1312 424.116 34.9301 424.994 34.9301C425.871 34.9301 426.637 35.1312 427.291 35.5333C427.944 35.9354 428.452 36.4999 428.814 37.227C429.175 37.954 429.356 38.8029 429.356 39.7736C429.356 40.7402 429.175 41.5851 428.814 42.308C428.452 43.031 427.944 43.5935 427.291 43.9956C426.637 44.3977 425.871 44.5988 424.994 44.5988ZM425 43.0696C425.568 43.0696 426.04 42.9193 426.413 42.6187C426.787 42.3182 427.063 41.9181 427.242 41.4185C427.425 40.919 427.516 40.3686 427.516 39.7675C427.516 39.1704 427.425 38.6221 427.242 38.1225C427.063 37.6189 426.787 37.2148 426.413 36.9101C426.04 36.6055 425.568 36.4532 425 36.4532C424.427 36.4532 423.952 36.6055 423.574 36.9101C423.2 37.2148 422.922 37.6189 422.739 38.1225C422.561 38.6221 422.471 39.1704 422.471 39.7675C422.471 40.3686 422.561 40.919 422.739 41.4185C422.922 41.9181 423.2 42.3182 423.574 42.6187C423.952 42.9193 424.427 43.0696 425 43.0696ZM433.211 38.8536V44.4099H431.389V35.052H433.138V36.5751H433.253C433.469 36.0795 433.806 35.6815 434.265 35.3809C434.728 35.0804 435.311 34.9301 436.013 34.9301C436.651 34.9301 437.209 35.0641 437.689 35.3322C438.168 35.5962 438.54 35.9902 438.804 36.5141C439.068 37.0381 439.2 37.6859 439.2 38.4576V44.4099H437.378V38.6769C437.378 37.9987 437.201 37.4686 436.848 37.0868C436.495 36.701 436.009 36.508 435.392 36.508C434.969 36.508 434.594 36.5994 434.265 36.7822C433.94 36.965 433.682 37.233 433.491 37.5864C433.304 37.9357 433.211 38.3581 433.211 38.8536ZM446.011 35.052V36.5141H440.899V35.052H446.011ZM442.27 32.8099H444.092V41.6622C444.092 42.0156 444.145 42.2816 444.25 42.4603C444.356 42.635 444.492 42.7548 444.658 42.8198C444.829 42.8807 445.014 42.9112 445.213 42.9112C445.359 42.9112 445.487 42.901 445.597 42.8807C445.706 42.8604 445.792 42.8442 445.853 42.832L446.182 44.3368C446.076 44.3774 445.926 44.418 445.731 44.4587C445.536 44.5033 445.292 44.5277 445 44.5318C444.52 44.5399 444.074 44.4546 443.659 44.2759C443.245 44.0972 442.91 43.821 442.654 43.4473C442.398 43.0736 442.27 42.6045 442.27 42.04V32.8099ZM448.026 44.4099V35.052H449.787V36.5385H449.884C450.055 36.0349 450.355 35.6389 450.786 35.3505C451.221 35.058 451.712 34.9118 452.26 34.9118C452.374 34.9118 452.508 34.9159 452.662 34.924C452.821 34.9321 452.945 34.9423 453.034 34.9545V36.6969C452.961 36.6766 452.831 36.6543 452.644 36.6299C452.457 36.6015 452.27 36.5872 452.084 36.5872C451.653 36.5872 451.269 36.6786 450.932 36.8614C450.599 37.0401 450.335 37.2899 450.14 37.6108C449.945 37.9276 449.848 38.2891 449.848 38.6952V44.4099H448.026ZM457.25 44.6171C456.657 44.6171 456.121 44.5074 455.642 44.2881C455.162 44.0647 454.783 43.7418 454.502 43.3194C454.226 42.897 454.088 42.3791 454.088 41.7658C454.088 41.2378 454.19 40.8032 454.393 40.462C454.596 40.1208 454.87 39.8508 455.215 39.6517C455.56 39.4527 455.946 39.3024 456.373 39.2009C456.799 39.0994 457.234 39.0222 457.676 38.9694C458.237 38.9044 458.692 38.8516 459.041 38.811C459.39 38.7663 459.644 38.6952 459.803 38.5977C459.961 38.5003 460.04 38.3419 460.04 38.1225V38.0799C460.04 37.5478 459.89 37.1356 459.589 36.8431C459.293 36.5507 458.85 36.4045 458.261 36.4045C457.648 36.4045 457.165 36.5405 456.811 36.8127C456.462 37.0807 456.22 37.3793 456.086 37.7083L454.374 37.3183C454.577 36.7497 454.874 36.2907 455.264 35.9415C455.658 35.5881 456.111 35.3322 456.622 35.1738C457.134 35.0113 457.672 34.9301 458.237 34.9301C458.611 34.9301 459.007 34.9748 459.425 35.0641C459.847 35.1494 460.241 35.3078 460.607 35.5394C460.977 35.7709 461.279 36.1019 461.515 36.5324C461.75 36.9589 461.868 37.5133 461.868 38.1956V44.4099H460.089V43.1305H460.016C459.898 43.3661 459.721 43.5976 459.486 43.825C459.25 44.0525 458.948 44.2414 458.578 44.3916C458.209 44.5419 457.766 44.6171 457.25 44.6171ZM457.646 43.1549C458.15 43.1549 458.58 43.0554 458.938 42.8563C459.299 42.6573 459.573 42.3974 459.76 42.0765C459.951 41.7516 460.046 41.4043 460.046 41.0347V39.8284C459.981 39.8934 459.856 39.9543 459.669 40.0112C459.486 40.064 459.277 40.1107 459.041 40.1513C458.806 40.1879 458.576 40.2224 458.353 40.2549C458.129 40.2833 457.942 40.3077 457.792 40.328C457.439 40.3727 457.116 40.4478 456.824 40.5534C456.535 40.659 456.304 40.8113 456.129 41.0103C455.958 41.2053 455.873 41.4652 455.873 41.7902C455.873 42.241 456.04 42.5822 456.373 42.8137C456.706 43.0411 457.13 43.1549 457.646 43.1549ZM468.236 44.5988C467.33 44.5988 466.551 44.3937 465.897 43.9834C465.247 43.5692 464.747 42.9985 464.398 42.2715C464.049 41.5444 463.874 40.7118 463.874 39.7736C463.874 38.8232 464.053 37.9844 464.41 37.2574C464.768 36.5263 465.271 35.9557 465.921 35.5454C466.571 35.1352 467.336 34.9301 468.218 34.9301C468.929 34.9301 469.562 35.0621 470.119 35.3261C470.675 35.5861 471.124 35.9516 471.465 36.4228C471.81 36.8939 472.015 37.4442 472.08 38.0738H470.308C470.21 37.6351 469.987 37.2574 469.637 36.9406C469.292 36.6238 468.829 36.4654 468.248 36.4654C467.741 36.4654 467.296 36.5994 466.914 36.8675C466.536 37.1315 466.242 37.5092 466.031 38.0007C465.819 38.4881 465.714 39.0648 465.714 39.7309C465.714 40.4133 465.817 41.0022 466.025 41.4977C466.232 41.9933 466.524 42.3771 466.902 42.6492C467.284 42.9213 467.732 43.0574 468.248 43.0574C468.594 43.0574 468.906 42.9944 469.187 42.8685C469.471 42.7386 469.708 42.5538 469.899 42.3141C470.094 42.0745 470.23 41.7861 470.308 41.449H472.08C472.015 42.0542 471.818 42.5944 471.489 43.0696C471.16 43.5448 470.72 43.9185 470.167 44.1906C469.619 44.4627 468.975 44.5988 468.236 44.5988ZM478.397 35.052V36.5141H473.285V35.052H478.397ZM474.656 32.8099H476.478V41.6622C476.478 42.0156 476.53 42.2816 476.636 42.4603C476.742 42.635 476.878 42.7548 477.044 42.8198C477.215 42.8807 477.4 42.9112 477.599 42.9112C477.745 42.9112 477.873 42.901 477.982 42.8807C478.092 42.8604 478.177 42.8442 478.238 42.832L478.567 44.3368C478.462 44.3774 478.311 44.418 478.117 44.4587C477.922 44.5033 477.678 44.5277 477.385 44.5318C476.906 44.5399 476.459 44.4546 476.045 44.2759C475.631 44.0972 475.296 43.821 475.04 43.4473C474.784 43.0736 474.656 42.6045 474.656 42.04V32.8099ZM484.952 44.4099V35.052H486.701V36.5751H486.816C487.011 36.0592 487.33 35.6571 487.773 35.3688C488.216 35.0763 488.746 34.9301 489.363 34.9301C489.989 34.9301 490.513 35.0763 490.935 35.3688C491.361 35.6612 491.676 36.0633 491.879 36.5751H491.977C492.2 36.0755 492.556 35.6774 493.043 35.3809C493.53 35.0804 494.111 34.9301 494.785 34.9301C495.634 34.9301 496.327 35.1961 496.863 35.7282C497.403 36.2603 497.673 37.0625 497.673 38.1347V44.4099H495.852V38.3053C495.852 37.6717 495.679 37.2127 495.334 36.9284C494.988 36.6441 494.576 36.502 494.097 36.502C493.504 36.502 493.043 36.6847 492.714 37.0503C492.385 37.4118 492.22 37.8768 492.22 38.4454V44.4099H490.405V38.1896C490.405 37.6819 490.247 37.2737 489.93 36.965C489.613 36.6563 489.201 36.502 488.693 36.502C488.348 36.502 488.029 36.5933 487.736 36.7761C487.448 36.9548 487.215 37.2046 487.036 37.5255C486.861 37.8463 486.774 38.218 486.774 38.6404V44.4099H484.952ZM502.838 44.6171C502.245 44.6171 501.709 44.5074 501.23 44.2881C500.75 44.0647 500.371 43.7418 500.09 43.3194C499.814 42.897 499.676 42.3791 499.676 41.7658C499.676 41.2378 499.778 40.8032 499.981 40.462C500.184 40.1208 500.458 39.8508 500.803 39.6517C501.148 39.4527 501.534 39.3024 501.961 39.2009C502.387 39.0994 502.822 39.0222 503.264 38.9694C503.825 38.9044 504.28 38.8516 504.629 38.811C504.978 38.7663 505.232 38.6952 505.391 38.5977C505.549 38.5003 505.628 38.3419 505.628 38.1225V38.0799C505.628 37.5478 505.478 37.1356 505.178 36.8431C504.881 36.5507 504.438 36.4045 503.849 36.4045C503.236 36.4045 502.753 36.5405 502.399 36.8127C502.05 37.0807 501.808 37.3793 501.674 37.7083L499.962 37.3183C500.165 36.7497 500.462 36.2907 500.852 35.9415C501.246 35.5881 501.699 35.3322 502.211 35.1738C502.722 35.0113 503.26 34.9301 503.825 34.9301C504.199 34.9301 504.595 34.9748 505.013 35.0641C505.435 35.1494 505.829 35.3078 506.195 35.5394C506.565 35.7709 506.867 36.1019 507.103 36.5324C507.338 36.9589 507.456 37.5133 507.456 38.1956V44.4099H505.677V43.1305H505.604C505.486 43.3661 505.31 43.5976 505.074 43.825C504.838 44.0525 504.536 44.2414 504.166 44.3916C503.797 44.5419 503.354 44.6171 502.838 44.6171ZM503.234 43.1549C503.738 43.1549 504.168 43.0554 504.526 42.8563C504.887 42.6573 505.161 42.3974 505.348 42.0765C505.539 41.7516 505.634 41.4043 505.634 41.0347V39.8284C505.569 39.8934 505.444 39.9543 505.257 40.0112C505.074 40.064 504.865 40.1107 504.629 40.1513C504.394 40.1879 504.164 40.2224 503.941 40.2549C503.717 40.2833 503.531 40.3077 503.38 40.328C503.027 40.3727 502.704 40.4478 502.412 40.5534C502.123 40.659 501.892 40.8113 501.717 41.0103C501.546 41.2053 501.461 41.4652 501.461 41.7902C501.461 42.241 501.628 42.5822 501.961 42.8137C502.294 43.0411 502.718 43.1549 503.234 43.1549ZM511.704 38.8536V44.4099H509.882V35.052H511.631V36.5751H511.747C511.962 36.0795 512.299 35.6815 512.758 35.3809C513.221 35.0804 513.804 34.9301 514.507 34.9301C515.144 34.9301 515.703 35.0641 516.182 35.3322C516.661 35.5962 517.033 35.9902 517.297 36.5141C517.561 37.0381 517.693 37.6859 517.693 38.4576V44.4099H515.871V38.6769C515.871 37.9987 515.695 37.4686 515.341 37.0868C514.988 36.701 514.502 36.508 513.885 36.508C513.463 36.508 513.087 36.5994 512.758 36.7822C512.433 36.965 512.175 37.233 511.984 37.5864C511.797 37.9357 511.704 38.3581 511.704 38.8536ZM522.859 44.6171C522.266 44.6171 521.73 44.5074 521.251 44.2881C520.772 44.0647 520.392 43.7418 520.112 43.3194C519.835 42.897 519.697 42.3791 519.697 41.7658C519.697 41.2378 519.799 40.8032 520.002 40.462C520.205 40.1208 520.479 39.8508 520.824 39.6517C521.17 39.4527 521.555 39.3024 521.982 39.2009C522.408 39.0994 522.843 39.0222 523.286 38.9694C523.846 38.9044 524.301 38.8516 524.65 38.811C525 38.7663 525.254 38.6952 525.412 38.5977C525.57 38.5003 525.65 38.3419 525.65 38.1225V38.0799C525.65 37.5478 525.499 37.1356 525.199 36.8431C524.902 36.5507 524.46 36.4045 523.871 36.4045C523.257 36.4045 522.774 36.5405 522.421 36.8127C522.071 37.0807 521.83 37.3793 521.696 37.7083L519.984 37.3183C520.187 36.7497 520.483 36.2907 520.873 35.9415C521.267 35.5881 521.72 35.3322 522.232 35.1738C522.743 35.0113 523.282 34.9301 523.846 34.9301C524.22 34.9301 524.616 34.9748 525.034 35.0641C525.457 35.1494 525.851 35.3078 526.216 35.5394C526.586 35.7709 526.888 36.1019 527.124 36.5324C527.359 36.9589 527.477 37.5133 527.477 38.1956V44.4099H525.698V43.1305H525.625C525.507 43.3661 525.331 43.5976 525.095 43.825C524.86 44.0525 524.557 44.2414 524.187 44.3916C523.818 44.5419 523.375 44.6171 522.859 44.6171ZM523.255 43.1549C523.759 43.1549 524.189 43.0554 524.547 42.8563C524.908 42.6573 525.182 42.3974 525.369 42.0765C525.56 41.7516 525.656 41.4043 525.656 41.0347V39.8284C525.591 39.8934 525.465 39.9543 525.278 40.0112C525.095 40.064 524.886 40.1107 524.65 40.1513C524.415 40.1879 524.185 40.2224 523.962 40.2549C523.739 40.2833 523.552 40.3077 523.401 40.328C523.048 40.3727 522.725 40.4478 522.433 40.5534C522.144 40.659 521.913 40.8113 521.738 41.0103C521.568 41.2053 521.482 41.4652 521.482 41.7902C521.482 42.241 521.649 42.5822 521.982 42.8137C522.315 43.0411 522.739 43.1549 523.255 43.1549ZM533.827 48.1141C533.084 48.1141 532.444 48.0166 531.908 47.8217C531.376 47.6267 530.941 47.3688 530.604 47.0479C530.267 46.7271 530.015 46.3757 529.849 45.9939L531.415 45.3481C531.524 45.5269 531.67 45.7157 531.853 45.9147C532.04 46.1178 532.292 46.2904 532.609 46.4326C532.929 46.5748 533.342 46.6458 533.845 46.6458C534.536 46.6458 535.107 46.4773 535.557 46.1402C536.008 45.8071 536.234 45.275 536.234 44.5439V42.704H536.118C536.008 42.9031 535.85 43.1244 535.643 43.3681C535.44 43.6118 535.159 43.823 534.802 44.0017C534.444 44.1804 533.979 44.2698 533.407 44.2698C532.668 44.2698 532.001 44.0972 531.408 43.7519C530.819 43.4026 530.352 42.8888 530.007 42.2105C529.666 41.5282 529.495 40.6895 529.495 39.6944C529.495 38.6993 529.664 37.8463 530.001 37.1356C530.342 36.4248 530.809 35.8805 531.402 35.5028C531.995 35.121 532.668 34.9301 533.419 34.9301C534 34.9301 534.469 35.0276 534.826 35.2225C535.184 35.4134 535.462 35.6368 535.661 35.8927C535.864 36.1486 536.02 36.374 536.13 36.569H536.264V35.052H538.049V44.6171C538.049 45.4213 537.862 46.0813 537.489 46.5971C537.115 47.1129 536.609 47.4947 535.972 47.7425C535.338 47.9902 534.623 48.1141 533.827 48.1141ZM533.809 42.7589C534.333 42.7589 534.775 42.637 535.137 42.3933C535.503 42.1456 535.779 41.7922 535.966 41.3332C536.156 40.8702 536.252 40.3158 536.252 39.67C536.252 39.0405 536.158 38.4861 535.972 38.0068C535.785 37.5275 535.511 37.1538 535.149 36.8858C534.788 36.6136 534.341 36.4776 533.809 36.4776C533.261 36.4776 532.804 36.6197 532.438 36.9041C532.072 37.1843 531.796 37.5661 531.609 38.0494C531.427 38.5328 531.335 39.073 531.335 39.67C531.335 40.2833 531.429 40.8215 531.616 41.2845C531.802 41.7475 532.079 42.109 532.444 42.369C532.814 42.6289 533.269 42.7589 533.809 42.7589ZM544.525 44.5988C543.603 44.5988 542.809 44.4018 542.143 44.0078C541.481 43.6098 540.969 43.0513 540.608 42.3324C540.251 41.6094 540.072 40.7626 540.072 39.7919C540.072 38.8333 540.251 37.9885 540.608 37.2574C540.969 36.5263 541.473 35.9557 542.119 35.5454C542.769 35.1352 543.528 34.9301 544.397 34.9301C544.925 34.9301 545.437 35.0174 545.933 35.1921C546.428 35.3667 546.873 35.6409 547.267 36.0146C547.661 36.3882 547.972 36.8736 548.199 37.4706C548.427 38.0636 548.54 38.7846 548.54 39.6335V40.2793H541.101V38.9146H546.755C546.755 38.4353 546.658 38.0108 546.463 37.6412C546.268 37.2676 545.994 36.9731 545.64 36.7578C545.291 36.5426 544.881 36.4349 544.41 36.4349C543.898 36.4349 543.451 36.5608 543.069 36.8127C542.692 37.0604 542.399 37.3854 542.192 37.7875C541.989 38.1855 541.887 38.6181 541.887 39.0851V40.1513C541.887 40.7768 541.997 41.3089 542.216 41.7475C542.44 42.1862 542.75 42.5213 543.149 42.7528C543.547 42.9802 544.012 43.0939 544.544 43.0939C544.889 43.0939 545.204 43.0452 545.488 42.9477C545.772 42.8462 546.018 42.6959 546.225 42.4969C546.432 42.2979 546.591 42.0521 546.7 41.7597L548.425 42.0704C548.286 42.5781 548.039 43.0229 547.681 43.4047C547.328 43.7824 546.883 44.0769 546.347 44.2881C545.815 44.4952 545.208 44.5988 544.525 44.5988ZM550.561 44.4099V35.052H552.31V36.5751H552.426C552.621 36.0592 552.94 35.6571 553.382 35.3688C553.825 35.0763 554.355 34.9301 554.972 34.9301C555.598 34.9301 556.122 35.0763 556.544 35.3688C556.971 35.6612 557.285 36.0633 557.489 36.5751H557.586C557.809 36.0755 558.165 35.6774 558.652 35.3809C559.14 35.0804 559.72 34.9301 560.395 34.9301C561.243 34.9301 561.936 35.1961 562.472 35.7282C563.012 36.2603 563.282 37.0625 563.282 38.1347V44.4099H561.461V38.3053C561.461 37.6717 561.288 37.2127 560.943 36.9284C560.598 36.6441 560.185 36.502 559.706 36.502C559.113 36.502 558.652 36.6847 558.323 37.0503C557.994 37.4118 557.83 37.8768 557.83 38.4454V44.4099H556.014V38.1896C556.014 37.6819 555.856 37.2737 555.539 36.965C555.222 36.6563 554.81 36.502 554.302 36.502C553.957 36.502 553.638 36.5933 553.346 36.7761C553.057 36.9548 552.824 37.2046 552.645 37.5255C552.47 37.8463 552.383 38.218 552.383 38.6404V44.4099H550.561ZM569.757 44.5988C568.835 44.5988 568.041 44.4018 567.375 44.0078C566.713 43.6098 566.201 43.0513 565.84 42.3324C565.482 41.6094 565.304 40.7626 565.304 39.7919C565.304 38.8333 565.482 37.9885 565.84 37.2574C566.201 36.5263 566.705 35.9557 567.351 35.5454C568 35.1352 568.76 34.9301 569.629 34.9301C570.157 34.9301 570.669 35.0174 571.164 35.1921C571.66 35.3667 572.105 35.6409 572.499 36.0146C572.893 36.3882 573.203 36.8736 573.431 37.4706C573.658 38.0636 573.772 38.7846 573.772 39.6335V40.2793H566.333V38.9146H571.987C571.987 38.4353 571.889 38.0108 571.695 37.6412C571.5 37.2676 571.225 36.9731 570.872 36.7578C570.523 36.5426 570.113 36.4349 569.641 36.4349C569.13 36.4349 568.683 36.5608 568.301 36.8127C567.923 37.0604 567.631 37.3854 567.424 37.7875C567.221 38.1855 567.119 38.6181 567.119 39.0851V40.1513C567.119 40.7768 567.229 41.3089 567.448 41.7475C567.672 42.1862 567.982 42.5213 568.38 42.7528C568.778 42.9802 569.243 43.0939 569.775 43.0939C570.121 43.0939 570.435 43.0452 570.72 42.9477C571.004 42.8462 571.25 42.6959 571.457 42.4969C571.664 42.2979 571.822 42.0521 571.932 41.7597L573.656 42.0704C573.518 42.5781 573.27 43.0229 572.913 43.4047C572.56 43.7824 572.115 44.0769 571.579 44.2881C571.047 44.4952 570.439 44.5988 569.757 44.5988ZM577.615 38.8536V44.4099H575.793V35.052H577.542V36.5751H577.658C577.873 36.0795 578.21 35.6815 578.669 35.3809C579.132 35.0804 579.715 34.9301 580.417 34.9301C581.055 34.9301 581.614 35.0641 582.093 35.3322C582.572 35.5962 582.944 35.9902 583.208 36.5141C583.472 37.0381 583.604 37.6859 583.604 38.4576V44.4099H581.782V38.6769C581.782 37.9987 581.605 37.4686 581.252 37.0868C580.899 36.701 580.413 36.508 579.796 36.508C579.374 36.508 578.998 36.5994 578.669 36.7822C578.344 36.965 578.086 37.233 577.895 37.5864C577.708 37.9357 577.615 38.3581 577.615 38.8536ZM590.415 35.052V36.5141H585.304V35.052H590.415ZM586.674 32.8099H588.496V41.6622C588.496 42.0156 588.549 42.2816 588.654 42.4603C588.76 42.635 588.896 42.7548 589.063 42.8198C589.233 42.8807 589.418 42.9112 589.617 42.9112C589.763 42.9112 589.891 42.901 590.001 42.8807C590.11 42.8604 590.196 42.8442 590.257 42.832L590.586 44.3368C590.48 44.3774 590.33 44.418 590.135 44.4587C589.94 44.5033 589.696 44.5277 589.404 44.5318C588.924 44.5399 588.478 44.4546 588.063 44.2759C587.649 44.0972 587.314 43.821 587.058 43.4473C586.802 43.0736 586.674 42.6045 586.674 42.04V32.8099Z" fill="#26422B"/>
</svg>
